name rise34.3697peak60.0498fall86.3158.mot
datacolumns 19
datarows 32
range 10.58829700000000 10.63996300000000
endheader
time	ground_force1_vx	ground_force1_vy	ground_force1_vz	ground_force1_px	ground_force1_py	ground_force1_pz	ground_force2_vx	ground_force2_vy	ground_force2_vz	ground_force2_px	ground_force2_py	ground_force2_pz	ground_torque1_x	ground_torque1_y	ground_torque1_z	ground_torque2_x	ground_torque2_y	ground_torque2_z	
10.58829700000000	-43.84826500000000	835.95006699999999	59.95933800000000	0.21452800000000	0.00000000000000	0.14065600000000	-1.89718400000000	3.60740900000000	1.47953700000000	0.00000000000000	0.00000000000000	0.00000000000000	0.00000000000000	34.92135800000000	0.00000000000000	0.00000000000000	0.72197500000000	0.00000000000000	
10.58996400000000	-44.37864800000000	833.68037300000003	59.86268900000000	0.21368300000000	0.00000000000000	0.14066400000000	-3.07732500000000	6.90906900000000	2.52140600000000	0.00000000000000	0.00000000000000	0.00000000000000	0.00000000000000	34.89898400000000	0.00000000000000	0.00000000000000	1.23010400000000	0.00000000000000	
10.59162600000000	-44.93043100000000	831.28657099999998	59.74684600000000	0.21282700000000	0.00000000000000	0.14067100000000	-4.42138200000000	10.89226100000000	3.73240600000000	0.00000000000000	0.00000000000000	0.00000000000000	0.00000000000000	34.87550600000000	0.00000000000000	0.00000000000000	1.82083300000000	0.00000000000000	
10.59330500000000	-45.50357100000000	828.76865799999996	59.61150300000000	0.21196100000000	0.00000000000000	0.14067600000000	-5.89148700000000	15.51293700000000	5.08552300000000	0.00000000000000	0.00000000000000	0.00000000000000	0.00000000000000	34.85092400000000	0.00000000000000	0.00000000000000	2.48106700000000	0.00000000000000	
10.59496200000000	-46.09795000000000	826.12660900000003	59.45636600000000	0.21108400000000	0.00000000000000	0.14067900000000	-7.43959800000000	20.69675900000000	6.54438500000000	0.00000000000000	0.00000000000000	0.00000000000000	0.00000000000000	34.82522600000000	0.00000000000000	0.00000000000000	3.19316500000000	0.00000000000000	
10.59662300000000	-46.71337800000000	823.36036300000001	59.28115200000000	0.21019700000000	0.00000000000000	0.14068000000000	-9.01067500000000	26.34466300000000	8.06567900000000	0.44097000000000	0.00000000000000	-0.02791800000000	0.00000000000000	34.79838700000000	0.00000000000000	0.00000000000000	7.24129400000000	0.00000000000000	
10.59829000000000	-47.34958900000000	820.46982700000001	59.08558700000000	0.20930000000000	0.00000000000000	0.14067900000000	-10.54673000000000	32.34111800000000	9.60237200000000	0.44095900000000	0.00000000000000	-0.02915500000000	0.00000000000000	34.77036800000000	0.00000000000000	0.00000000000000	8.61392200000000	0.00000000000000	
10.59995600000000	-48.00624100000000	817.45486400000004	58.86940800000000	0.20839500000000	0.00000000000000	0.14067600000000	-11.99123000000000	38.56398600000000	11.10732300000000	0.44112000000000	0.00000000000000	-0.03027700000000	0.00000000000000	34.74111900000000	0.00000000000000	0.00000000000000	9.96002200000000	0.00000000000000	
10.60162300000000	-48.68291000000000	814.31529499999999	58.63236600000000	0.20748000000000	0.00000000000000	0.14066900000000	-13.29325600000000	44.89458800000000	12.53679400000000	0.44142700000000	0.00000000000000	-0.03130300000000	0.00000000000000	34.71057400000000	0.00000000000000	0.00000000000000	11.24175300000000	0.00000000000000	
10.60330500000000	-49.37909300000000	811.05089199999998	58.37422200000000	0.20655800000000	0.00000000000000	0.14066100000000	-14.41088500000000	51.22662800000000	13.85339000000000	0.44186200000000	0.00000000000000	-0.03224500000000	0.00000000000000	34.67865200000000	0.00000000000000	0.00000000000000	12.42680300000000	0.00000000000000	
10.60495800000000	-50.09420500000000	807.66137700000002	58.09475000000000	0.20562900000000	0.00000000000000	0.14064900000000	-15.31346500000000	57.47304000000000	15.02815600000000	0.44240800000000	0.00000000000000	-0.03311400000000	0.00000000000000	34.64525800000000	0.00000000000000	0.00000000000000	13.49019000000000	0.00000000000000	
10.60662900000000	-50.82757900000000	804.14642300000003	57.79373900000000	0.20469300000000	0.00000000000000	0.14063400000000	-15.98266000000000	63.57028600000000	16.04169000000000	0.44305000000000	0.00000000000000	-0.03392200000000	0.00000000000000	34.61027900000000	0.00000000000000	0.00000000000000	14.41522300000000	0.00000000000000	
10.60828900000000	-51.57846000000000	800.50564999999995	57.47099100000000	0.20375000000000	0.00000000000000	0.14061600000000	-16.41233500000000	69.48004299999999	16.88430300000000	0.44377900000000	0.00000000000000	-0.03467400000000	0.00000000000000	34.57359000000000	0.00000000000000	0.00000000000000	15.19364200000000	0.00000000000000	
10.60996100000000	-52.34601200000000	796.73862799999995	57.12632500000000	0.20280300000000	0.00000000000000	0.14059500000000	-16.60746100000000	75.18854899999999	17.55536400000000	0.44458300000000	0.00000000000000	-0.03537800000000	0.00000000000000	34.53504600000000	0.00000000000000	0.00000000000000	15.82504500000000	0.00000000000000	
10.61162700000000	-53.12930800000000	792.84487500000000	56.75957500000000	0.20185100000000	0.00000000000000	0.14057000000000	-16.58228800000000	80.70402799999999	18.06200700000000	0.44545500000000	0.00000000000000	-0.03603900000000	0.00000000000000	34.49448600000000	0.00000000000000	0.00000000000000	16.31577000000000	0.00000000000000	
10.61330700000000	-53.92733800000000	788.82386099999997	56.37059400000000	0.20089600000000	0.00000000000000	0.14054200000000	-16.35807500000000	86.05274600000000	18.41743000000000	0.44638800000000	0.00000000000000	-0.03666300000000	0.00000000000000	34.45173300000000	0.00000000000000	0.00000000000000	16.67741300000000	0.00000000000000	
10.61496400000000	-54.73900500000000	784.67500900000005	55.95925300000000	0.19993700000000	0.00000000000000	0.14051000000000	-15.96062100000000	91.27427600000000	18.63898200000000	0.44737500000000	0.00000000000000	-0.03725200000000	0.00000000000000	34.40659300000000	0.00000000000000	0.00000000000000	16.92517700000000	0.00000000000000	
10.61662500000000	-55.56312100000000	780.39770199999998	55.52544300000000	0.19897700000000	0.00000000000000	0.14047300000000	-15.41785600000000	96.41647900000000	18.74624800000000	0.44841100000000	0.00000000000000	-0.03781100000000	0.00000000000000	34.35885300000000	0.00000000000000	0.00000000000000	17.07619700000000	0.00000000000000	
10.61830700000000	-56.39841400000000	775.99127899999996	55.06907800000000	0.19801600000000	0.00000000000000	0.14043300000000	-14.75766600000000	101.53067600000000	18.75928500000000	0.44949000000000	0.00000000000000	-0.03834200000000	0.00000000000000	34.30828400000000	0.00000000000000	0.00000000000000	17.14800500000000	0.00000000000000	
10.61996300000000	-57.24352500000000	771.45505000000003	54.59009400000000	0.19705500000000	0.00000000000000	0.14038800000000	-14.00608200000000	106.66735799999999	18.69711200000000	0.45060800000000	0.00000000000000	-0.03884800000000	0.00000000000000	34.25463900000000	0.00000000000000	0.00000000000000	17.15721100000000	0.00000000000000	
10.62162700000000	-58.09700800000000	766.78828999999996	54.08845100000000	0.19609500000000	0.00000000000000	0.14033900000000	-13.18592500000000	111.87267000000000	18.57654800000000	0.45176200000000	0.00000000000000	-0.03933100000000	0.00000000000000	34.19765600000000	0.00000000000000	0.00000000000000	17.11848000000000	0.00000000000000	
10.62330500000000	-58.95733100000000	761.99025500000005	53.56413600000000	0.19513700000000	0.00000000000000	0.14028600000000	-12.31591600000000	117.18582300000000	18.41141300000000	0.45294700000000	0.00000000000000	-0.03979300000000	0.00000000000000	34.13705300000000	0.00000000000000	0.00000000000000	17.04383200000000	0.00000000000000	
10.62496000000000	-59.82287900000000	757.06018300000005	53.01716300000000	0.19418200000000	0.00000000000000	0.14022800000000	-11.41025200000000	122.63744800000001	18.21209800000000	0.45416000000000	0.00000000000000	-0.04023600000000	0.00000000000000	34.07253300000000	0.00000000000000	0.00000000000000	16.94224900000000	0.00000000000000	
10.62662600000000	-60.69195500000000	751.99730099999999	52.44757700000000	0.19323100000000	0.00000000000000	0.14016500000000	-10.47858600000000	128.24886100000001	17.98546100000000	0.45539800000000	0.00000000000000	-0.04066200000000	0.00000000000000	34.00378300000000	0.00000000000000	0.00000000000000	16.81958800000000	0.00000000000000	
10.62829400000000	-61.56278100000000	746.80083400000001	51.85545200000000	0.19228400000000	0.00000000000000	0.14009700000000	-9.52634300000000	134.03212400000001	17.73501200000000	0.45665800000000	0.00000000000000	-0.04107100000000	0.00000000000000	33.93047400000000	0.00000000000000	0.00000000000000	16.67872800000000	0.00000000000000	
10.62996100000000	-62.43350200000000	741.47001499999999	51.24089600000000	0.19134400000000	0.00000000000000	0.14002400000000	-8.55529300000000	139.99075300000001	17.46130800000000	0.45793700000000	0.00000000000000	-0.04146500000000	0.00000000000000	33.85226200000000	0.00000000000000	0.00000000000000	16.51991600000000	0.00000000000000	
10.63162900000000	-63.30218700000000	736.00409000000002	50.60405000000000	0.19041100000000	0.00000000000000	0.13994600000000	-7.56428000000000	146.12090300000000	17.16250000000000	0.45923100000000	0.00000000000000	-0.04184500000000	0.00000000000000	33.76878900000000	0.00000000000000	0.00000000000000	16.34124200000000	0.00000000000000	
10.63329500000000	-64.16683500000001	730.40233100000000	49.94509200000000	0.18948600000000	0.00000000000000	0.13986200000000	-6.55002900000000	152.41284400000001	16.83495600000000	0.46053900000000	0.00000000000000	-0.04221200000000	0.00000000000000	33.67968600000000	0.00000000000000	0.00000000000000	16.13918800000000	0.00000000000000	
10.63495700000000	-65.02537400000000	724.66404499999999	49.26423700000000	0.18857000000000	0.00000000000000	0.13977400000000	-5.50795900000000	158.85258300000001	16.47390200000000	0.46185800000000	0.00000000000000	-0.04256700000000	0.00000000000000	33.58456700000000	0.00000000000000	0.00000000000000	15.90919700000000	0.00000000000000	
10.63662200000000	-65.87567000000000	718.78858600000001	48.56173700000000	0.18766400000000	0.00000000000000	0.13967900000000	-4.43294100000000	165.42346300000000	16.07403500000000	0.46318500000000	0.00000000000000	-0.04291000000000	0.00000000000000	33.48304100000000	0.00000000000000	0.00000000000000	15.64621500000000	0.00000000000000	
10.63830600000000	-66.71553000000000	712.77536299999997	47.83788600000000	0.18677000000000	0.00000000000000	0.13958000000000	-3.31994200000000	172.10764200000000	15.63006000000000	0.46451800000000	0.00000000000000	-0.04324100000000	0.00000000000000	33.37470300000000	0.00000000000000	0.00000000000000	15.34517300000000	0.00000000000000	
10.63996300000000	-67.54270400000000	706.62386200000003	47.09301900000000	0.18588700000000	0.00000000000000	0.13947500000000	-2.16455200000000	178.88736100000000	15.13713500000000	0.46585400000000	0.00000000000000	-0.04356300000000	0.00000000000000	33.25914000000000	0.00000000000000	0.00000000000000	15.00138600000000	0.00000000000000	
